#define layout_mtall_width 12
#define layout_mtall_height 12
static unsigned char layout_mtall_bits[] = {
   0x00, 0x00, 0x00, 0x00, 0xfe, 0x03, 0x02, 0x02, 0x02, 0x02, 0x02, 0x02,
   0xfe, 0x03, 0x22, 0x02, 0x22, 0x02, 0x22, 0x02, 0xfe, 0x03, 0x00, 0x00 };
