#define layout_tall_width 12
#define layout_tall_height 12
static unsigned char layout_tall_bits[] = {
   0x00, 0x00, 0x00, 0x00, 0xfe, 0x03, 0x22, 0x02, 0x22, 0x02, 0x22, 0x02,
   0xe2, 0x03, 0x22, 0x02, 0x22, 0x02, 0x22, 0x02, 0xfe, 0x03, 0x00, 0x00 };
