#define layout_full_width 12
#define layout_full_height 12
static unsigned char layout_full_bits[] = {
   0x00, 0x00, 0x00, 0x00, 0xfe, 0x03, 0xfe, 0x03, 0x02, 0x02, 0x02, 0x02,
   0x02, 0x02, 0x02, 0x02, 0x02, 0x02, 0x02, 0x02, 0xfe, 0x03, 0x00, 0x00 };
